<svg width="2187" height="529" viewBox="0 0 2187 529" fill="none" xmlns="http://www.w3.org/2000/svg">
<path d="M0 103.8L238.609 222.675V528.5L0 410.641V232.497V103.8Z" fill="#5014A4"/>
<path d="M26 244.394V147.918L213 241V483.131L26 390.845V244.394Z" fill="#320E65" stroke="white" stroke-width="16"/>
<path d="M491.609 104L253 222.875V528.7L491.609 410.841V232.697V104Z" fill="#320E65"/>
<path d="M244.955 0L492 94.5453L244.955 214L0 94.5453L244.955 0Z" fill="#5014A4"/>
<path d="M23.9944 95.6708L245.02 10.2857L467.934 95.6714L245.022 203.553L23.9944 95.6708Z" fill="#1B0437" stroke="white" stroke-width="8"/>
<path d="M466 244.394V147.918L279 241V483.131L466 390.845V244.394Z" fill="#1E083E" stroke="#737373" stroke-width="16"/>
<path d="M698.254 191.82C690.832 192.211 684.582 195.043 679.504 200.316C674.621 205.59 671.105 211.645 668.957 218.48C666.809 225.121 665.734 231.957 665.734 238.988C665.734 246.02 666.711 252.953 668.664 259.789C670.812 266.625 674.426 272.68 679.504 277.953C684.582 283.031 690.832 285.766 698.254 286.156H794.934C807.238 287.328 813.977 294.066 815.148 306.371C814.953 311.84 812.902 316.43 808.996 320.141C805.09 323.656 800.402 325.414 794.934 325.414H701.477H688C674.328 324.633 663.098 319.457 654.309 309.887C645.52 300.121 639.172 289.086 635.266 276.781C631.555 264.477 629.699 251.879 629.699 238.988C629.699 229.418 630.773 219.945 632.922 210.57C635.07 201.195 638.391 192.309 642.883 183.91C647.57 175.316 653.723 167.992 661.34 161.938C669.152 155.883 678.039 152.758 688 152.562H693.566H794.934C807.238 153.734 813.977 160.473 815.148 172.777C815.148 178.246 813.098 182.836 808.996 186.547C805.09 190.062 800.402 191.82 794.934 191.82H698.254ZM848.254 229.32C851.965 219.945 858.215 211.547 867.004 204.125C875.988 196.508 887.316 192.602 900.988 192.406H1011.14C1016.61 192.406 1021.2 194.359 1024.91 198.266C1028.82 201.977 1030.77 206.566 1030.77 212.035C1030.77 217.504 1028.82 222.191 1024.91 226.098C1021.2 229.809 1016.61 231.664 1011.14 231.664H899.816C896.105 231.664 892.883 233.227 890.148 236.352C887.414 239.281 885.266 242.797 883.703 246.898C882.336 251 881.652 254.906 881.652 258.617V309.887C880.48 321.605 874.035 327.953 862.316 328.93C856.848 328.93 852.062 327.172 847.961 323.656C844.055 319.945 842.102 315.355 842.102 309.887V258.91H842.395C842.395 248.754 844.348 238.891 848.254 229.32ZM1079.41 188.891C1084.88 188.891 1089.56 190.746 1093.47 194.457C1097.38 197.973 1099.43 202.465 1099.62 207.934V237.523C1099.43 245.531 1099.91 252.953 1101.09 259.789C1102.45 266.43 1105.58 272.387 1110.46 277.66C1115.34 282.934 1121.5 285.766 1128.92 286.156H1207.14V208.52C1207.14 203.051 1209.09 198.559 1213 195.043C1217.1 191.332 1221.89 189.477 1227.36 189.477C1239.07 190.453 1245.52 196.801 1246.69 208.52V304.027C1246.69 319.652 1244.54 334.398 1240.25 348.266C1236.34 360.57 1229.89 370.922 1220.91 379.32C1212.12 387.914 1200.89 392.602 1187.22 393.383H1085.85C1080.58 393.188 1076.09 391.234 1072.38 387.523C1068.86 384.008 1067 379.613 1066.81 374.34C1066.81 368.871 1068.57 364.184 1072.08 360.277C1075.79 356.371 1080.38 354.32 1085.85 354.125H1177.26C1184.68 353.734 1190.83 350.902 1195.71 345.629C1200.6 340.355 1203.72 334.203 1205.09 327.172C1205.29 326.586 1205.38 326 1205.38 325.414H1118.96C1105.29 324.633 1093.96 320.043 1084.97 311.645C1076.18 303.051 1069.84 292.602 1065.93 280.297C1062.22 267.992 1060.27 254.906 1060.07 241.039V207.934C1060.27 202.66 1062.22 198.266 1065.93 194.75C1069.64 191.039 1074.13 189.086 1079.41 188.891ZM1324.62 350.902C1323.45 362.621 1317 368.969 1305.29 369.945C1299.82 369.945 1295.03 368.09 1290.93 364.379C1287.02 360.863 1285.07 356.371 1285.07 350.902V211.449C1285.27 205.98 1287.32 201.488 1291.22 197.973C1295.13 194.262 1299.82 192.406 1305.29 192.406H1428.33C1445.52 192.992 1458.51 197.094 1467.3 204.711C1476.09 212.133 1482.43 220.629 1486.34 230.199C1490.25 239.574 1492.2 249.145 1492.2 258.91C1492.2 269.066 1490.25 278.93 1486.34 288.5C1482.63 297.875 1476.28 306.371 1467.3 313.988C1458.51 321.41 1447.28 325.219 1433.61 325.414H1359.78C1354.31 325.414 1349.72 323.461 1346.01 319.555C1342.1 315.844 1340.15 311.254 1340.15 305.785C1340.15 300.316 1342 295.727 1345.71 292.016C1349.62 288.109 1354.31 286.156 1359.78 286.156H1434.78C1438.49 286.156 1441.71 284.691 1444.45 281.762C1447.18 278.637 1449.13 275.121 1450.3 271.215C1451.67 267.113 1452.36 263.109 1452.36 259.203C1452.36 255.102 1451.67 251.098 1450.3 247.191C1449.13 243.09 1447.18 239.574 1444.45 236.645C1441.71 233.52 1438.49 231.859 1434.78 231.664H1332.24C1327.16 231.859 1324.62 234.398 1324.62 239.281V350.902ZM1595.03 328.93C1589.76 328.734 1585.27 326.879 1581.55 323.363C1577.84 319.652 1575.89 315.16 1575.7 309.887V270.336H1542C1536.54 270.336 1531.85 268.48 1527.94 264.77C1524.23 260.863 1522.38 256.176 1522.38 250.707C1522.38 245.238 1524.33 240.648 1528.23 236.938C1531.95 233.031 1536.54 231.078 1542 231.078H1575.7C1576.28 219.555 1578.23 208.422 1581.55 197.68C1585.46 185.375 1591.81 175.023 1600.6 166.625C1609.58 158.031 1620.91 153.344 1634.58 152.562H1716.03C1721.3 152.758 1725.7 154.711 1729.21 158.422C1732.92 161.938 1734.88 166.332 1735.07 171.605C1735.07 177.074 1733.21 181.762 1729.5 185.668C1725.99 189.574 1721.5 191.625 1716.03 191.82H1644.54C1637.12 192.211 1630.97 195.043 1626.09 200.316C1621.2 205.59 1618.18 211.547 1617 218.188C1616.03 222.484 1615.44 226.781 1615.25 231.078H1714.86C1720.32 231.078 1724.91 233.031 1728.62 236.938C1732.53 240.648 1734.48 245.238 1734.48 250.707C1734.48 256.176 1732.63 260.863 1728.92 264.77C1725.01 268.48 1720.32 270.336 1714.86 270.336H1615.25V309.887C1615.05 315.355 1613 319.945 1609.09 323.656C1605.19 327.172 1600.5 328.93 1595.03 328.93ZM1785.75 147.875C1791.03 148.07 1795.52 150.023 1799.23 153.734C1802.94 157.25 1804.89 161.645 1805.09 166.918V310.473C1803.92 322.191 1797.47 328.539 1785.75 329.516C1780.29 329.516 1775.5 327.758 1771.4 324.242C1767.49 320.531 1765.54 315.941 1765.54 310.473V166.918C1765.73 161.449 1767.79 156.957 1771.69 153.441C1775.6 149.73 1780.29 147.875 1785.75 147.875ZM1862.51 189.477C1867.79 189.672 1872.28 191.625 1875.99 195.336C1879.7 198.852 1881.65 203.246 1881.85 208.52V309.887C1880.68 321.605 1874.23 327.953 1862.51 328.93C1857.04 328.93 1852.26 327.172 1848.16 323.656C1844.25 319.945 1842.3 315.355 1842.3 309.887V208.52C1842.49 203.051 1844.54 198.559 1848.45 195.043C1852.36 191.332 1857.04 189.477 1862.51 189.477ZM1837.9 151.391C1837.9 145.922 1840.25 141.234 1844.93 137.328C1849.62 133.422 1855.29 131.469 1861.93 131.469C1868.57 131.469 1874.23 133.422 1878.92 137.328C1883.61 141.234 1885.95 145.922 1885.95 151.391C1885.95 157.055 1883.61 161.84 1878.92 165.746C1874.23 169.652 1868.57 171.605 1861.93 171.605C1855.29 171.605 1849.62 169.652 1844.93 165.746C1840.25 161.84 1837.9 157.055 1837.9 151.391ZM1957.14 350.902C1955.97 362.621 1949.52 368.969 1937.8 369.945C1932.34 369.945 1927.55 368.09 1923.45 364.379C1919.54 360.863 1917.59 356.371 1917.59 350.902V211.449C1917.79 205.98 1919.84 201.488 1923.74 197.973C1927.65 194.262 1932.34 192.406 1937.8 192.406H2060.85C2078.04 192.992 2091.03 197.094 2099.82 204.711C2108.61 212.133 2114.95 220.629 2118.86 230.199C2122.77 239.574 2124.72 249.145 2124.72 258.91C2124.72 269.066 2122.77 278.93 2118.86 288.5C2115.15 297.875 2108.8 306.371 2099.82 313.988C2091.03 321.41 2079.8 325.219 2066.12 325.414H1992.3C1986.83 325.414 1982.24 323.461 1978.53 319.555C1974.62 315.844 1972.67 311.254 1972.67 305.785C1972.67 300.316 1974.52 295.727 1978.23 292.016C1982.14 288.109 1986.83 286.156 1992.3 286.156H2067.3C2071.01 286.156 2074.23 284.691 2076.96 281.762C2079.7 278.637 2081.65 275.121 2082.82 271.215C2084.19 267.113 2084.88 263.109 2084.88 259.203C2084.88 255.102 2084.19 251.098 2082.82 247.191C2081.65 243.09 2079.7 239.574 2076.96 236.645C2074.23 233.52 2071.01 231.859 2067.3 231.664H1964.76C1959.68 231.859 1957.14 234.398 1957.14 239.281V350.902Z" fill="white"/>
</svg>
